<svg width="24" height="24" viewBox="0 0 24 24" fill="none" xmlns="http://www.w3.org/2000/svg">
<path fill-rule="evenodd" clip-rule="evenodd" d="M5.6254 12.7266L4.66883 15.4534C4.14492 16.9468 3.88296 17.6935 4.07095 18.1532C4.2342 18.5526 4.58483 18.8553 5.01749 18.9706C5.5157 19.1033 6.2682 18.7801 7.77319 18.1339L17.4216 13.9907L17.4227 13.9902C18.891 13.3596 19.6251 13.0443 19.8521 12.6063C20.0493 12.2256 20.0493 11.7789 19.8521 11.3982C19.6251 10.9602 18.8906 10.6447 17.4216 10.0139L7.75655 5.86358C6.25609 5.21926 5.50587 4.89709 5.00815 5.02925C4.5759 5.14402 4.22531 5.44597 4.06149 5.84455C3.87285 6.30352 4.13201 7.04861 4.65033 8.53879L5.62726 11.3476H11.5795V12.0023V12.7266H5.6254Z" fill="#AEEA00"/>
</svg>
