<svg width="24" height="24" viewBox="0 0 24 24" fill="none" xmlns="http://www.w3.org/2000/svg">
<path d="M11.632 12.002H6.56583M6.42223 12.6228L5.58523 14.96C5.1268 16.2401 4.89759 16.8801 5.06208 17.2742C5.20493 17.6165 5.51173 17.876 5.8903 17.9748C6.32624 18.0885 6.98467 17.8115 8.30154 17.2576L16.7439 13.7063C18.0293 13.1655 18.6719 12.8952 18.8705 12.5197C19.0432 12.1934 19.0432 11.8105 18.8705 11.4842C18.6719 11.1087 18.0293 10.8383 16.7439 10.2976L8.28698 6.74021C6.97408 6.18794 6.31763 5.91179 5.88213 6.02507C5.50391 6.12345 5.19715 6.38226 5.0538 6.7239C4.88875 7.1173 5.11551 7.75595 5.56904 9.03325L6.42385 11.4408C6.50174 11.6601 6.5407 11.7698 6.55607 11.882C6.56971 11.9816 6.56957 12.0823 6.55566 12.1819C6.53997 12.294 6.50073 12.4036 6.42223 12.6228Z" stroke="black" stroke-opacity="0.87" stroke-width="2" stroke-linecap="round" stroke-linejoin="round"/>
</svg>
